<?xml version="1.0" standalone="no"?>
<!DOCTYPE svg PUBLIC "-//W3C//DTD SVG 1.1//EN" "http://www.w3.org/Graphics/SVG/1.1/DTD/svg11.dtd">
<svg width="160.5" height="20" version="1.1" xmlns="http://www.w3.org/2000/svg">
	<desc>abc_abc_ab_Spiderma_BK_12T</desc>
	<g id="bars" fill="black" stroke="none">
		<rect x="0" y="0" width="1" height="20" />
		<rect x="1.5" y="0" width="0.5" height="20" />
		<rect x="3" y="0" width="0.5" height="20" />
		<rect x="5.5" y="0" width="0.5" height="20" />
		<rect x="7" y="0" width="0.5" height="20" />
		<rect x="8" y="0" width="1" height="20" />
		<rect x="11" y="0" width="0.5" height="20" />
		<rect x="12.5" y="0" width="0.5" height="20" />
		<rect x="15" y="0" width="1" height="20" />
		<rect x="16.5" y="0" width="0.5" height="20" />
		<rect x="19" y="0" width="0.5" height="20" />
		<rect x="20" y="0" width="1" height="20" />
		<rect x="22" y="0" width="0.5" height="20" />
		<rect x="23" y="0" width="0.5" height="20" />
		<rect x="24.5" y="0" width="1" height="20" />
		<rect x="27.5" y="0" width="0.5" height="20" />
		<rect x="29" y="0" width="0.5" height="20" />
		<rect x="30" y="0" width="1" height="20" />
		<rect x="33" y="0" width="0.5" height="20" />
		<rect x="34.5" y="0" width="0.5" height="20" />
		<rect x="37" y="0" width="1" height="20" />
		<rect x="38.5" y="0" width="0.5" height="20" />
		<rect x="41" y="0" width="0.5" height="20" />
		<rect x="42" y="0" width="1" height="20" />
		<rect x="44" y="0" width="0.5" height="20" />
		<rect x="45" y="0" width="0.5" height="20" />
		<rect x="46.5" y="0" width="1" height="20" />
		<rect x="49.5" y="0" width="0.5" height="20" />
		<rect x="51" y="0" width="0.5" height="20" />
		<rect x="52" y="0" width="1" height="20" />
		<rect x="55" y="0" width="0.5" height="20" />
		<rect x="56.5" y="0" width="0.5" height="20" />
		<rect x="59" y="0" width="1" height="20" />
		<rect x="60.5" y="0" width="0.5" height="20" />
		<rect x="61.5" y="0" width="0.5" height="20" />
		<rect x="63" y="0" width="1" height="20" />
		<rect x="66" y="0" width="1" height="20" />
		<rect x="67.5" y="0" width="1.5" height="20" />
		<rect x="69.5" y="0" width="0.5" height="20" />
		<rect x="71.5" y="0" width="0.5" height="20" />
		<rect x="72.5" y="0" width="0.5" height="20" />
		<rect x="74" y="0" width="2" height="20" />
		<rect x="77" y="0" width="0.5" height="20" />
		<rect x="79.5" y="0" width="1" height="20" />
		<rect x="81" y="0" width="0.5" height="20" />
		<rect x="82.5" y="0" width="0.5" height="20" />
		<rect x="85" y="0" width="0.5" height="20" />
		<rect x="86.5" y="0" width="1" height="20" />
		<rect x="88" y="0" width="0.5" height="20" />
		<rect x="89" y="0" width="1" height="20" />
		<rect x="91" y="0" width="0.5" height="20" />
		<rect x="93.5" y="0" width="0.5" height="20" />
		<rect x="95" y="0" width="0.5" height="20" />
		<rect x="96.5" y="0" width="2" height="20" />
		<rect x="99" y="0" width="2" height="20" />
		<rect x="101.5" y="0" width="1.5" height="20" />
		<rect x="103.5" y="0" width="0.5" height="20" />
		<rect x="104.5" y="0" width="0.5" height="20" />
		<rect x="106" y="0" width="0.5" height="20" />
		<rect x="107" y="0" width="1" height="20" />
		<rect x="110" y="0" width="0.5" height="20" />
		<rect x="111" y="0" width="0.5" height="20" />
		<rect x="112.5" y="0" width="1" height="20" />
		<rect x="115.5" y="0" width="0.5" height="20" />
		<rect x="117.5" y="0" width="0.5" height="20" />
		<rect x="118.5" y="0" width="1" height="20" />
		<rect x="121" y="0" width="0.5" height="20" />
		<rect x="122" y="0" width="1" height="20" />
		<rect x="124.5" y="0" width="1.5" height="20" />
		<rect x="126.5" y="0" width="0.5" height="20" />
		<rect x="127.5" y="0" width="0.5" height="20" />
		<rect x="129" y="0" width="1" height="20" />
		<rect x="132" y="0" width="0.5" height="20" />
		<rect x="133.5" y="0" width="1.5" height="20" />
		<rect x="136" y="0" width="1" height="20" />
		<rect x="137.5" y="0" width="1" height="20" />
		<rect x="139.5" y="0" width="1.5" height="20" />
		<rect x="142" y="0" width="0.5" height="20" />
		<rect x="143" y="0" width="1" height="20" />
		<rect x="144.5" y="0" width="1.5" height="20" />
		<rect x="147.5" y="0" width="0.5" height="20" />
		<rect x="148.5" y="0" width="1" height="20" />
		<rect x="150.5" y="0" width="1" height="20" />
		<rect x="152.5" y="0" width="1" height="20" />
		<rect x="154" y="0" width="1" height="20" />
		<rect x="156.5" y="0" width="1.5" height="20" />
		<rect x="158.5" y="0" width="0.5" height="20" />
		<rect x="159.5" y="0" width="1" height="20" />
		<rect x="160.5" y="0" width="0" height="20" />
		<rect x="160.5" y="0" width="0" height="20" />
	</g>
</svg>
